<?xml version="1.0" encoding="utf-8"?>
<!-- Generator: Adobe Illustrator 25.0.0, SVG Export Plug-In . SVG Version: 6.00 Build 0)  -->
<svg version="1.1" id="Capa_1" xmlns="http://www.w3.org/2000/svg" xmlns:xlink="http://www.w3.org/1999/xlink" x="0px" y="0px"
	 viewBox="0 0 400 200" style="enable-background:new 0 0 400 200;" xml:space="preserve">
<style type="text/css">
	.st0{fill:#CF3339;}
</style>
<g>
	<path class="st0" d="M67.5,99.4c-4.1-1.9-7.1-4.2-4.6-9.5C67.2,82,75.5,76,151.9,60.4C75.4,82.6,72.4,86.1,90.3,91.6
		c5.5,1.5,8.2,2.2,11.1,3.3c13.3,4.9,1.1,17.3-93.9,39.8C61.6,113,82.7,106.4,67.5,99.4"/>
	<path class="st0" d="M126.6,97.2h1.7c3.7,0,7.4,0,8.1-4.7c0.8-4.8-2.6-4.9-6.6-4.9h-1.7L126.6,97.2z M119.1,79.6h15.7
		c8.5,0,13.7,3.8,12.3,12.6c-1.5,9.1-7.1,13-16,13h-5.8l-2.1,12.7h-10.2L119.1,79.6z"/>
	<path class="st0" d="M161.8,98.1c-1.1,6.6,3.1,11.4,9.2,11.4c6.1,0,11.9-4.8,13-11.4c0.8-5.3-3.4-10.1-9.5-10.1
		C168.4,88,162.6,92.8,161.8,98.1 M194.7,98.1c-2,12.4-12.6,21.2-25.2,21.2c-12.6,0-20.4-8.7-18.3-21.2c1.9-11.6,13.6-19.7,25-19.7
		C187.4,78.3,196.6,86.5,194.7,98.1"/>
	<path class="st0" d="M212.3,96.8h1c3.3,0,7.2-0.6,7.9-4.8c0.7-4.2-3-4.8-6.3-4.8h-1L212.3,96.8z M231.4,117.9h-12.7l-7.3-14.7h-0.1
		l-2.4,14.7h-10.2l6.2-38.3h15.3c7.8,0,13.1,3.6,11.8,11.8c-0.9,5.3-4.6,9.9-10.4,10.8L231.4,117.9z"/>
	<polygon class="st0" points="252.2,117.9 242,117.9 246.8,88 238.4,88 239.7,79.6 266.9,79.6 265.5,88 257.1,88 	"/>
	<polygon class="st0" points="277,117.9 266.8,117.9 273,79.6 283.2,79.6 	"/>
	<path class="st0" d="M326.5,79.6l-3.5,21.6c-0.8,4.9-1.8,9.8-6.3,13.5c-3.8,3.2-9.1,4.3-13.7,4.3c-4.6,0-9.6-1.1-12.4-4.3
		c-3.3-3.7-2.7-8.6-1.9-13.5l3.5-21.6h10.2l-3.2,20.2c-0.8,5-1.4,10.4,5.2,10.4c6.6,0,7.8-5.4,8.7-10.4l3.2-20.2H326.5z"/>
	<polygon class="st0" points="339.7,79.6 349.8,79.6 354.5,100.1 366.3,79.6 376.5,79.6 376.2,117.9 366,117.9 366.7,95.9 
		366.6,95.9 353.5,117.9 349.4,117.9 344,95.9 343.9,95.9 337,117.9 326.8,117.9 	"/>
</g>
</svg>
